# xmcd
#
# Track frame offsets:
#	150
#	20249
#	38073
#	56610
#	77514
#	110453
#	128406
#	145876
#	165612
#	188485
#	211260
#	226790
#	244646
#	268665
#	289485
#	310608
#	337491
#
# Disc length: 4721 seconds
#
# Revision: 0
# Processed by: cddbd v1.5.1PL0 Copyright (c) Steve Scherf et al.
# Submitted via: EasyCDDAExtractor 8.0.1.1
#
DISCID=ed126f11
DTITLE=Chris Rea - The Best Of Chris Rea
DYEAR=1995
DGENRE=Blues
TTITLE0=The Road To Hell (Part II)
TTITLE1=Josephine
TTITLE2=Let's Dance
TTITLE3=Fool (If You Think It's Over)
TTITLE4=Auberge
TTITLE5=Julia
TTITLE6=Stainsby Girls
TTITLE7=If You Were Me
TTITLE8=On The Beach
TTITLE9=Looking For The Summer
TTITLE10=I Can Hear Your Heartbeat
TTITLE11=You Can Go Your Own Way
TTITLE12=God's Great Banana Skin
TTITLE13=Winter Song
TTITLE14=Gone Fishing
TTITLE15=Tell Me There's A Heaven
TTITLE16=Three Little Green Candles
EXTD=
EXTT0=
EXTT1=
EXTT2=
EXTT3=
EXTT4=
EXTT5=
EXTT6=
EXTT7=
EXTT8=
EXTT9=
EXTT10=
EXTT11=
EXTT12=
EXTT13=
EXTT14=
EXTT15=
EXTT16=
PLAYORDER=
